{
    "accessors" : [
        {
            "bufferView" : 0,
            "componentType" : 5125,
            "count" : 479703,
            "max" : [
                397466
            ],
            "min" : [
                0
            ],
            "type" : "SCALAR"
        },
        {
            "bufferView" : 1,
            "componentType" : 5126,
            "count" : 397467,
            "max" : [
                0.25897300243377686,
                0.16906900703907013,
                0.10584499686956406
            ],
            "min" : [
                -0.3349420130252838,
                -0.14575399458408356,
                -0.15255899727344513
            ],
            "type" : "VEC3"
        },
        {
            "bufferView" : 2,
            "componentType" : 5126,
            "count" : 397467,
            "max" : [
                0.999969482421875,
                0.999969482421875,
                0.999969482421875
            ],
            "min" : [
                -0.999847412109375,
                -0.999969482421875,
                -0.99993896484375
            ],
            "type" : "VEC3"
        },
        {
            "bufferView" : 3,
            "componentType" : 5126,
            "count" : 397467,
            "max" : [
                0.9999735355377197,
                0.9999679327011108,
                0.9999984502792358,
                1.0
            ],
            "min" : [
                -0.9998888969421387,
                -0.9999488592147827,
                -0.9999985694885254,
                1.0
            ],
            "type" : "VEC4"
        },
        {
            "bufferView" : 4,
            "componentType" : 5126,
            "count" : 397467,
            "max" : [
                0.9921650290489197,
                0.9920728895813227
            ],
            "min" : [
                0.003900340059772134,
                0.004233002662658691
            ],
            "type" : "VEC2"
        }
    ],
    "asset" : {
        "generator" : "Khronos Blender glTF 2.0 exporter",
        "version" : "2.0"
    },
    "bufferViews" : [
        {
            "buffer" : 0,
            "byteLength" : 1918812,
            "byteOffset" : 0,
            "target" : 34963
        },
        {
            "buffer" : 0,
            "byteLength" : 4769604,
            "byteOffset" : 1918812,
            "target" : 34962
        },
        {
            "buffer" : 0,
            "byteLength" : 4769604,
            "byteOffset" : 6688416,
            "target" : 34962
        },
        {
            "buffer" : 0,
            "byteLength" : 6359472,
            "byteOffset" : 11458020,
            "target" : 34962
        },
        {
            "buffer" : 0,
            "byteLength" : 3179736,
            "byteOffset" : 17817492,
            "target" : 34962
        }
    ],
    "buffers" : [
        {
            "byteLength" : 20997228,
            "uri" : "adidas.bin"
        }
    ],
    "images" : [
        {
            "name" : "Texture",
            "uri" : "Texture.jpg"
        },
        {
            "name" : "NormalsTS",
            "uri" : "NormalsTS.jpg"
        }
    ],
    "materials" : [
        {
            "name" : "Textured",
            "normalTexture" : {
                "index" : 1
            },
            "pbrMetallicRoughness" : {
                "baseColorFactor" : [
                    0.800000011920929,
                    0.800000011920929,
                    0.800000011920929,
                    1.0
                ],
                "baseColorTexture" : {
                    "index" : 0
                },
                "metallicFactor" : 0.0
            }
        }
    ],
    "meshes" : [
        {
            "name" : "Mesh",
            "primitives" : [
                {
                    "attributes" : {
                        "NORMAL" : 2,
                        "POSITION" : 1,
                        "TANGENT" : 3,
                        "TEXCOORD_0" : 4
                    },
                    "indices" : 0,
                    "material" : 0
                }
            ]
        }
    ],
    "nodes" : [
        {
            "name" : "Camera.001",
            "rotation" : [
                0.48353609442710876,
                0.3368716537952423,
                -0.20870374143123627,
                0.7804827690124512
            ],
            "scale" : [
                0.9999999403953552,
                0.9999998807907104,
                1.0
            ],
            "translation" : [
                7.481131553649902,
                5.34366512298584,
                6.507639408111572
            ]
        },
        {
            "name" : "Lamp",
            "rotation" : [
                0.16907575726509094,
                0.7558802962303162,
                -0.27217137813568115,
                0.570947527885437
            ],
            "scale" : [
                1.0,
                1.0,
                0.9999999403953552
            ],
            "translation" : [
                4.076245307922363,
                5.903861999511719,
                -1.0054539442062378
            ]
        },
        {
            "name" : "Lamp.001",
            "rotation" : [
                0.18302229046821594,
                0.7526251673698425,
                -0.28268104791641235,
                0.565817654132843
            ],
            "scale" : [
                1.0000001192092896,
                1.0,
                1.0
            ],
            "translation" : [
                3.4919612407684326,
                4.193397521972656,
                0.8561013340950012
            ]
        },
        {
            "mesh" : 0,
            "name" : "Mesh",
            "rotation" : [
                0.247974693775177,
                -0.6621997356414795,
                0.6621999144554138,
                0.24797461926937103
            ],
            "scale" : [
                7.999999523162842,
                7.999999523162842,
                8.0
            ]
        },
        {
            "name" : "Point",
            "translation" : [
                -3.9951171875,
                0.2420063018798828,
                2.3185129165649414
            ]
        },
        {
            "name" : "Spot",
            "rotation" : [
                0.00296549079939723,
                0.15929053723812103,
                -0.9870561957359314,
                0.01837833970785141
            ],
            "scale" : [
                0.9999997615814209,
                1.0,
                1.0
            ],
            "translation" : [
                0.2772190272808075,
                -6.660867691040039,
                -2.932828187942505
            ]
        }
    ],
    "samplers" : [
        {}
    ],
    "scene" : 0,
    "scenes" : [
        {
            "name" : "Scene",
            "nodes" : [
                0,
                2,
                3,
                4,
                5,
                1
            ]
        }
    ],
    "textures" : [
        {
            "sampler" : 0,
            "source" : 0
        },
        {
            "sampler" : 0,
            "source" : 1
        }
    ]
}
